<?xml version="1.0" encoding="UTF-8"?>
<svg id="Layer_1" data-name="Layer 1" xmlns="http://www.w3.org/2000/svg" viewBox="0 0 142.5 31.79">
  <defs>
    <style>
      .cls-1 {
        fill: #fff;
        fill-rule: evenodd;
      }
    </style>
  </defs>
  <path class="cls-1" d="m30.53,15.12c-.21.12-.3.84-.47,1.4-.16.54-.34.98-.57,1.52-2.29,5.36-8.64,8.67-14.4,7.32-4.75-1.12-8.23-5.05-8.57-9.98-.46-6.55,4.2-12.34,10.93-13.48.41-.07,1.35-.07,1.49-.24l-.13-.16c-.55-.33-3.52-.39-4.08-.38-4.99.08-9.99,3.16-12.64,7.66-2.9,4.91-3.13,12.22,1.59,17.71,8.01,9.32,23.81,5.94,26.72-7.05.1-.44.6-4.01.13-4.32Z"/>
  <path class="cls-1" d="m18.08,23.76c-1.09,0-2.08-.12-2.95-.35-.87-.23-1.64-.52-2.3-.86-.66-.35-1.23-.73-1.7-1.16-.47-.43-.86-.85-1.16-1.25l3.8-2.85c.48.59,1.04,1.1,1.67,1.51.63.41,1.44.62,2.42.62.79,0,1.4-.12,1.83-.36.43-.24.65-.64.65-1.19,0-.42-.16-.75-.47-.99-.32-.24-.8-.47-1.45-.68l-2.3-.78c-.71-.23-1.36-.52-1.96-.86-.59-.35-1.11-.76-1.54-1.24-.43-.48-.77-1.03-1.01-1.65-.24-.62-.36-1.34-.36-2.14,0-.96.18-1.8.55-2.53.36-.73.86-1.34,1.48-1.83.62-.49,1.34-.86,2.14-1.11.81-.25,1.64-.37,2.5-.37s1.63.07,2.32.22c.68.14,1.28.34,1.8.58.14.06.27.13.39.2-.11.19-.16.42-.12.66.06.38.3.68.66.81.32.12.92.12,1.44.11l.02.02-2.99,3.14c-.4-.42-.84-.76-1.32-1.02-.48-.26-1.11-.39-1.9-.39-.63,0-1.11.13-1.42.39-.32.26-.47.58-.47.96s.11.68.33.89c.22.21.57.39,1.05.55l2.59.86c.98.33,1.8.69,2.47,1.08.67.39,1.21.83,1.61,1.32.4.49.7,1.03.88,1.61.18.58.27,1.22.27,1.91,0,.9-.14,1.73-.43,2.49-.29.76-.73,1.41-1.34,1.96-.6.55-1.38.97-2.32,1.28-.94.31-2.05.46-3.34.46Z"/>
  <path class="cls-1" d="m30.04,6.11v8.11h-.01c-.69.4-.75,1.33-.95,2.02-.14.48-.33.94-.53,1.4-.79,1.86-2.12,3.44-3.75,4.63V6.24c.09,0,.17,0,.24-.01.24,0,.53-.03.81-.04l.84,2.4c.12.34.39.58.74.66.36.08.7-.02.96-.28.23-.23.32-.6.42-.9.12-.36.23-.72.34-1.08.09-.29.18-.59.27-.88.2,0,.41,0,.6,0Z"/>
  <path class="cls-1" d="m38.57,19.33c1.02,0,1.71-.2,2.09-.6.37-.4.56-.94.56-1.61s-.19-1.2-.58-1.6c-.38-.39-1.07-.59-2.07-.59h-3.16v4.4h3.16Zm-.63-8.2c.58,0,1-.13,1.27-.4.27-.27.4-.63.4-1.09s-.12-.84-.37-1.14c-.25-.3-.66-.45-1.24-.45h-2.59v3.08h2.53Zm-5.77-7.22h6.18c.98,0,1.86.11,2.65.33.79.22,1.46.53,2.01.93.56.4.99.9,1.29,1.5.31.59.46,1.27.46,2.01,0,1.09-.22,1.92-.65,2.49-.43.57-.96,1-1.6,1.31.54.15,1.04.36,1.51.63.47.27.89.61,1.25,1.04.36.42.65.92.86,1.48.21.57.32,1.22.32,1.97,0,1.88-.68,3.33-2.04,4.34-1.36,1.02-3.27,1.52-5.72,1.52h-8.34v-.56c.45-1.03.8-2.11,1.06-3.24.06-.28.1-.59.14-.87.06-.46.11-.93.15-1.39.04-.51.07-1.03.06-1.54-.02-.59-.12-1.24-.65-1.6l-.52-.35-.23.13v-7.94c.55-.01,1.47.04,1.95-.12.54-.18.83-.76.65-1.3h0c-.09-.26-.25-.46-.47-.58-.04-.03-.09-.05-.13-.07,0,0,0,0,0,0,0,0,0,0-.02-.01-.03-.02-.05-.04-.08-.06l-.06-.04Z"/>
  <polygon class="cls-1" points="45.49 3.92 59.21 3.92 59.21 8.32 50.73 8.32 50.73 12.86 57.8 12.86 57.8 17.03 50.73 17.03 50.73 19.08 59.61 19.08 59.61 23.48 45.49 23.48 45.49 3.92"/>
  <path class="cls-1" d="m66.11,14.82c1.18,0,2.01-.3,2.5-.9.49-.59.74-1.38.74-2.34,0-.48-.06-.92-.17-1.31-.11-.4-.31-.74-.57-1.03-.26-.29-.59-.52-1-.68-.4-.16-.91-.24-1.51-.24h-1.94v6.5h1.94Zm8.42,8.66h-5.67l-2.73-4.49h-1.96v4.49h-5.23V3.92h7.42c1.32,0,2.49.2,3.51.59,1.02.39,1.87.93,2.57,1.63.7.69,1.23,1.5,1.6,2.43.36.93.55,1.94.55,3.03,0,1.42-.3,2.67-.91,3.75-.6,1.08-1.48,1.94-2.63,2.57l3.48,5.55Z"/>
  <path class="cls-1" d="m80.79,23.68c-.04.1-.1.14-.17.14s-.13-.05-.17-.14l-9.2-19.76h5.58l4,9.12,3.88-9.12h5.32l-9.23,19.76Z"/>
  <path class="cls-1" d="m92.05,13.35l-1.96,4.54h3.97l-2.01-4.54h0Zm-4.34,10.12h-5.12l9.52-19.9c.04-.1.1-.14.17-.14s.13.05.17.14l9.49,19.9h-5.41l-.75-1.67h-7.36l-.72,1.67Z"/>
  <polygon class="cls-1" points="101.82 8.32 96.64 8.32 96.64 3.92 112.23 3.92 112.23 8.32 107.05 8.32 107.05 23.48 101.82 23.48 101.82 8.32"/>
  <path class="cls-1" d="m116.39,13.35l-1.96,4.54h3.97l-2.01-4.54h0Zm-4.34,10.12h-5.12l9.52-19.9c.04-.1.1-.14.17-.14s.13.05.17.14l9.49,19.9h-5.41l-.75-1.67h-7.36l-.72,1.67Z"/>
  <path class="cls-1" d="m129.81,13.73v9.75h-4.92V3.66c0-.1.03-.16.09-.2.06-.04.16,0,.32.14l12.28,10.12V3.92h4.92v19.85c0,.12-.03.19-.09.22-.06.03-.16-.02-.32-.16l-12.28-10.1Z"/>
  <path class="cls-1" d="m31.97,5.01h0s-.04-.04-.04-.03c0,.01-.03-.01-.04-.02-.03-.02-.08-.04-.1-.06-.09-.05-.08-.06-.15-.11-.13-.09-.21-.14-.34-.23l-2.02-1.4c0-.23.57-2,.68-2.38.08-.26.19-.54.22-.79l-2.62,1.97c-.41-.26-2.54-1.81-2.72-1.86l1.08,3.11-2.6,1.97c.34.13,2.67-.07,3.28-.01l1.08,3.08s.92-2.77.95-3.12c.48-.07,1.17-.04,1.67-.05.33,0,1.44,0,1.67-.07Z"/>
</svg>
